<svg width="15" height="27" viewBox="0 0 15 27" fill="none" xmlns="http://www.w3.org/2000/svg">
<path d="M14.2976 0.00354263H10.8221C6.91857 0.00354263 4.39509 2.59258 4.39509 6.5981V9.63857H0.900844C0.756235 9.63857 0.617631 9.69602 0.515377 9.79827C0.413123 9.90053 0.355637 10.0392 0.355637 10.1838V14.5833C0.355946 14.7278 0.413477 14.8664 0.515663 14.9685C0.61785 15.0707 0.75633 15.1283 0.900844 15.1286H4.39509V26.2458C4.3954 26.3905 4.45311 26.5292 4.55555 26.6314C4.65799 26.7336 4.79687 26.791 4.94159 26.791H9.4982C9.64302 26.791 9.7819 26.7336 9.88453 26.6315C9.98715 26.5293 10.0452 26.3906 10.0458 26.2458V15.1286H14.1298C14.2745 15.1286 14.4134 15.0712 14.5159 14.9689C14.6183 14.8667 14.676 14.728 14.6763 14.5833V10.1768C14.6755 10.0317 14.6178 9.89278 14.5156 9.78983C14.4647 9.73912 14.4045 9.69896 14.3381 9.6716C14.2717 9.64423 14.2005 9.63022 14.1287 9.63037H10.0434V7.05069C10.0434 5.81245 10.339 5.1828 11.9513 5.1828H14.2964C14.3681 5.18295 14.4391 5.16898 14.5054 5.14165C14.5717 5.11431 14.6319 5.07417 14.6826 5.02352C14.7334 4.97288 14.7736 4.91269 14.8011 4.84646C14.8286 4.78023 14.8428 4.70926 14.8428 4.63755V0.547605C14.8431 0.402888 14.786 0.263975 14.684 0.161315C14.582 0.058655 14.4434 0.000620769 14.2987 0L14.2976 0.00354263Z" fill="white"/>
</svg>
