<svg width="26" height="27" viewBox="0 0 26 27" fill="none" xmlns="http://www.w3.org/2000/svg">
<path d="M18.4939 0.172569H7.50448C6.51898 0.172569 5.54313 0.366683 4.63264 0.743818C3.72216 1.12095 2.89487 1.67373 2.19801 2.37058C1.50116 3.06744 0.948376 3.89473 0.57124 4.80521C0.194105 5.7157 0 6.69155 0 7.67705V18.6664C0 19.6519 0.194105 20.6278 0.57124 21.5383C0.948376 22.4487 1.50116 23.276 2.19801 23.9729C2.89487 24.6697 3.72216 25.2225 4.63264 25.5997C5.54313 25.9768 6.51898 26.1709 7.50448 26.1709H18.4939C20.4842 26.1709 22.393 25.3803 23.8003 23.9729C25.2077 22.5655 25.9983 20.6567 25.9983 18.6664V7.67705C25.9983 6.69155 25.8042 5.7157 25.4271 4.80521C25.05 3.89473 24.4972 3.06744 23.8003 2.37058C23.1035 1.67373 22.2762 1.12095 21.3657 0.743818C20.4552 0.366683 19.4794 0.172569 18.4939 0.172569ZM23.6028 18.8587C23.6028 19.5129 23.4739 20.1606 23.2236 20.7649C22.9733 21.3692 22.6064 21.9184 22.1438 22.3809C21.6813 22.8434 21.1322 23.2103 20.5278 23.4607C19.9235 23.711 19.2758 23.8398 18.6217 23.8398H7.3755C6.72137 23.8398 6.07365 23.711 5.46931 23.4607C4.86498 23.2103 4.31586 22.8434 3.85333 22.3809C3.39079 21.9184 3.02388 21.3692 2.77356 20.7649C2.52323 20.1606 2.3944 19.5129 2.3944 18.8587V7.61373C2.3944 6.9596 2.52323 6.31188 2.77356 5.70754C3.02388 5.10321 3.39079 4.5541 3.85333 4.09156C4.31586 3.62902 4.86498 3.26212 5.46931 3.0118C6.07365 2.76148 6.72137 2.63263 7.3755 2.63263H18.6217C19.2758 2.63263 19.9235 2.76148 20.5278 3.0118C21.1322 3.26212 21.6813 3.62902 22.1438 4.09156C22.6064 4.5541 22.9733 5.10321 23.2236 5.70754C23.4739 6.31188 23.6028 6.9596 23.6028 7.61373V18.8587Z" fill="white"/>
<path d="M12.9992 6.4904C11.6652 6.4904 10.3612 6.88597 9.25202 7.62709C8.14287 8.3682 7.27839 9.42157 6.76791 10.654C6.25742 11.8864 6.12386 13.2425 6.3841 14.5509C6.64435 15.8592 7.2867 17.061 8.22996 18.0042C9.17321 18.9475 10.375 19.5899 11.6833 19.8501C12.9917 20.1104 14.3478 19.9768 15.5802 19.4663C16.8126 18.9558 17.866 18.0913 18.6071 16.9822C19.3482 15.873 19.7438 14.569 19.7438 13.2351C19.7438 12.3493 19.5693 11.4723 19.2304 10.654C18.8914 9.8357 18.3946 9.09216 17.7683 8.46587C17.142 7.83957 16.3985 7.34277 15.5802 7.00382C14.7619 6.66486 13.8849 6.4904 12.9992 6.4904ZM12.9992 17.6076C12.1344 17.6076 11.289 17.3511 10.5699 16.8707C9.85084 16.3902 9.2904 15.7073 8.95945 14.9084C8.62851 14.1094 8.54193 13.2302 8.71064 12.382C8.87936 11.5338 9.29579 10.7547 9.9073 10.1432C10.5188 9.5317 11.2979 9.11525 12.1461 8.94654C12.9943 8.77782 13.8735 8.86442 14.6724 9.19536C15.4714 9.52631 16.1543 10.0868 16.6348 10.8058C17.1152 11.5249 17.3717 12.3702 17.3717 13.2351C17.3717 13.8093 17.2586 14.3779 17.0389 14.9084C16.8191 15.4389 16.497 15.9209 16.091 16.3269C15.685 16.7329 15.2029 17.055 14.6724 17.2747C14.1419 17.4945 13.5734 17.6076 12.9992 17.6076Z" fill="white"/>
<path d="M19.9689 7.80487C20.8367 7.80487 21.5402 7.1014 21.5402 6.23362C21.5402 5.36584 20.8367 4.66237 19.9689 4.66237C19.1012 4.66237 18.3977 5.36584 18.3977 6.23362C18.3977 7.1014 19.1012 7.80487 19.9689 7.80487Z" fill="white"/>
</svg>
