<?xml version="1.0" encoding="UTF-8" standalone="no"?>
<!-- Created with Inkscape (http://www.inkscape.org/) -->

<svg
   xmlns:dc="http://purl.org/dc/elements/1.1/"
   xmlns:cc="http://creativecommons.org/ns#"
   xmlns:rdf="http://www.w3.org/1999/02/22-rdf-syntax-ns#"
   xmlns:svg="http://www.w3.org/2000/svg"
   xmlns="http://www.w3.org/2000/svg"
   xmlns:sodipodi="http://sodipodi.sourceforge.net/DTD/sodipodi-0.dtd"
   xmlns:inkscape="http://www.inkscape.org/namespaces/inkscape"
   width="16px"
   height="16px"
   viewBox="0 0 16 16"
   version="1.1"
   id="SVGRoot"
   inkscape:version="0.92.5 (2060ec1f9f, 2020-04-08)"
   sodipodi:docname="koo.svg">
  <defs
     id="defs63">
    <marker
       inkscape:isstock="true"
       style="overflow:visible"
       id="marker1522"
       refX="0.0"
       refY="0.0"
       orient="auto"
       inkscape:stockid="Arrow1Lstart">
      <path
         transform="scale(0.8) translate(12.5,0)"
         style="fill-rule:evenodd;stroke:none;stroke-width:1pt;stroke-opacity:1;fill:#000000;fill-opacity:1"
         d="M 0.0,0.0 L 5.0,-5.0 L -12.5,0.0 L 5.0,5.0 L 0.0,0.0 z "
         id="path1520" />
    </marker>
    <marker
       inkscape:isstock="true"
       style="overflow:visible"
       id="marker1482"
       refX="0.0"
       refY="0.0"
       orient="auto"
       inkscape:stockid="Arrow1Lstart">
      <path
         transform="scale(0.8) translate(12.5,0)"
         style="fill-rule:evenodd;stroke:none;stroke-width:1pt;stroke-opacity:1;fill:#000000;fill-opacity:1"
         d="M 0.0,0.0 L 5.0,-5.0 L -12.5,0.0 L 5.0,5.0 L 0.0,0.0 z "
         id="path1480" />
    </marker>
    <marker
       inkscape:isstock="true"
       style="overflow:visible"
       id="marker1448"
       refX="0.0"
       refY="0.0"
       orient="auto"
       inkscape:stockid="Arrow1Lstart">
      <path
         transform="scale(0.8) translate(12.5,0)"
         style="fill-rule:evenodd;stroke:none;stroke-width:1pt;stroke-opacity:1;fill:#000000;fill-opacity:1"
         d="M 0.0,0.0 L 5.0,-5.0 L -12.5,0.0 L 5.0,5.0 L 0.0,0.0 z "
         id="path1446" />
    </marker>
    <marker
       inkscape:isstock="true"
       style="overflow:visible"
       id="marker1420"
       refX="0.0"
       refY="0.0"
       orient="auto"
       inkscape:stockid="Arrow1Lstart">
      <path
         transform="scale(0.8) translate(12.5,0)"
         style="fill-rule:evenodd;stroke:none;stroke-width:1pt;stroke-opacity:1;fill:#000000;fill-opacity:1"
         d="M 0.0,0.0 L 5.0,-5.0 L -12.5,0.0 L 5.0,5.0 L 0.0,0.0 z "
         id="path1418" />
    </marker>
    <marker
       inkscape:isstock="true"
       style="overflow:visible"
       id="marker1398"
       refX="0.0"
       refY="0.0"
       orient="auto"
       inkscape:stockid="Arrow1Lstart">
      <path
         transform="scale(0.8) translate(12.5,0)"
         style="fill-rule:evenodd;stroke:none;stroke-width:1pt;stroke-opacity:1;fill:#000000;fill-opacity:1"
         d="M 0.0,0.0 L 5.0,-5.0 L -12.5,0.0 L 5.0,5.0 L 0.0,0.0 z "
         id="path1396" />
    </marker>
  </defs>
  <sodipodi:namedview
     id="base"
     pagecolor="#ffffff"
     bordercolor="#666666"
     borderopacity="1.0"
     inkscape:pageopacity="0.0"
     inkscape:pageshadow="2"
     inkscape:zoom="24.43"
     inkscape:cx="3.580691"
     inkscape:cy="7.7451021"
     inkscape:document-units="px"
     inkscape:current-layer="g1612"
     showgrid="false"
     inkscape:window-width="1280"
     inkscape:window-height="689"
     inkscape:window-x="0"
     inkscape:window-y="0"
     inkscape:window-maximized="1"
     inkscape:grid-bbox="true"
     inkscape:snap-bbox="false"
     inkscape:object-paths="true" />
  <metadata
     id="metadata66">
    <rdf:RDF>
      <cc:Work
         rdf:about="">
        <dc:format>image/svg+xml</dc:format>
        <dc:type
           rdf:resource="http://purl.org/dc/dcmitype/StillImage" />
        <dc:title></dc:title>
      </cc:Work>
    </rdf:RDF>
  </metadata>
  <g
     inkscape:label="Camada 1"
     inkscape:groupmode="layer"
     id="layer1">
    <g
       style="fill:#01ffff;fill-opacity:1"
       id="g1030"
       transform="matrix(0.57406642,0,0,0.57406642,0.52471316,0.6941053)" />
  </g>
  <g
     inkscape:groupmode="layer"
     id="layer2"
     inkscape:label="Camada 2">
    <g
       id="g1612"
       transform="matrix(1.8137026,0,0,1.8024439,-5.2455676,-5.3084497)"
       style="stroke-width:0.55307758">
      <g
         id="g1043"
         transform="matrix(0.0199077,0,0,0.0199077,3.6994396,2.9689289)"
         style="stroke-width:5.55604458;stroke-miterlimit:4;stroke-dasharray:none">
        <path
           class="cls-1"
           d="m 106.67,109.21 7.62,-8.47 18.62,-22 28.79,-16.09 5.07,-8.47 5.08,-14.39 V 27.94 l 8.47,-9.32 5.08,-11.85 h 10.16 l 18.62,9.31 11.82,20.32 1.7,23.71 27.93,15.24 16.12,11.85 14.39,18.62 16.93,39.79 6.78,25.4 4.23,30.48 4.23,28.78 14.39,12.73 7.62,22 7.62,21.16 2.54,22.84 -10.16,20.32 -14.39,13.54 -18.62,3.39 -3.39,15.24 -8.47,21.16 -17.77,21.17 -19.48,16.93 -26.2,10.16 -29.63,7.62 H 154.08 L 118.52,434.29 77.88,420.75 54.18,408.9 37.25,397 25.4,387.73 13.54,373.34 5.08,361.49 8.47,343.71 22.86,335.24 v -12.69 l 5.92,-20.32 11.86,-23.71 11,-19.47 11,-16.08 11,-10.16 8.47,-5.93 v -14.39 l 2.54,-16.93 2.54,-27.09 5.08,-22.86 6.77,-21.16 z"
           id="path8"
           style="fill:#feffff;fill-opacity:0.99509804;stroke:#000000;stroke-width:22.22567558;stroke-miterlimit:4;stroke-dasharray:none;stroke-opacity:0"
           inkscape:connector-curvature="0" />
        <path
           class="cls-2"
           d="m 353.73,292.31 v -0.51 c -1.74305,-17.0485 -7.08767,-33.53228 -15.68,-48.36 -2.39069,-4.09227 -5.1309,-7.97006 -8.19,-11.59 -2.22413,-2.61358 -5.43196,-4.18853 -8.86,-4.35 -0.09,-1 -0.19,-2.07 -0.29,-3.1 -0.61,-6.42 -1.29,-12.7 -2,-18.8 -0.19,-1.52 -0.36,-3 -0.54,-4.53 l -0.41,-3.26 c 0.0179,-0.33923 -0.0297,-0.67872 -0.14,-1 -0.08,-0.73 -0.18,-1.45 -0.28,-2.18 -0.0265,-0.4103 -0.0833,-0.81809 -0.17,-1.22 -0.09,-0.66 -0.19,-1.31 -0.27,-2 -0.08,-0.69 -0.12,-0.83 -0.19,-1.25 -0.07,-0.42 -0.19,-1.27 -0.29,-1.91 -0.1,-0.64 -0.12,-0.81 -0.18,-1.22 -0.11,-0.66 -0.21,-1.32 -0.33,-2 -0.0224,-0.36786 -0.0793,-0.7328 -0.17,-1.09 -0.13,-0.79 -0.25,-1.57 -0.38,-2.33 -0.0237,-0.22924 -0.0638,-0.45649 -0.12,-0.68 -0.17,-1 -0.34,-2 -0.53,-3 l -0.15,-0.82 c -0.14,-0.71 -0.25,-1.42 -0.39,-2.11 L 314,174 c -0.12,-0.61 -0.24,-1.22 -0.38,-1.81 -0.14,-0.59 -0.15,-0.76 -0.22,-1.15 l -0.35,-1.69 c -0.09,-0.38 -0.17,-0.75 -0.24,-1.12 -0.07,-0.37 -0.25,-1.17 -0.39,-1.69 -0.14,-0.52 -0.15,-0.7 -0.22,-1.05 l -0.44,-1.92 c -0.0333,-0.28179 -0.0936,-0.55974 -0.18,-0.83 -0.21,-0.89 -0.43,-1.79 -0.65,-2.67 l -0.1,-0.43 c -0.19,-0.74 -0.35,-1.49 -0.54,-2.21 l -0.26,-0.93 c -0.13,-0.56 -0.28,-1.12 -0.42,-1.7 l -0.27,-1 c -0.15,-0.53 -0.29,-1 -0.42,-1.56 -0.13,-0.56 -0.19,-0.68 -0.29,-1 -0.1,-0.32 -0.29,-1 -0.42,-1.53 -0.13,-0.53 -0.21,-0.66 -0.29,-1 l -0.48,-1.6 -0.25,-0.88 c -0.2,-0.67 -0.42,-1.35 -0.63,-2 0.0165,-0.14566 -0.0228,-0.29214 -0.11,-0.41 -0.26,-0.79 -0.5,-1.57 -0.75,-2.35 l -0.25,-0.78 c -0.19,-0.52 -0.36,-1.05 -0.53,-1.57 l -0.3,-0.92 c -0.17,-0.46 -0.32,-0.93 -0.49,-1.4 l -0.33,-0.93 c -0.1,-0.33 -0.32,-0.9 -0.49,-1.36 l -0.32,-0.91 -0.51,-1.38 c -0.1,-0.27 -0.22,-0.55 -0.32,-0.84 -0.1,-0.29 -0.39,-1 -0.59,-1.54 -0.0382,-0.22364 -0.11969,-0.43765 -0.24,-0.63 -0.27,-0.71 -0.56,-1.4 -0.83,-2.1 l -0.25,-0.61 -0.61,-1.49 -0.34,-0.79 -0.54,-1.27 c -0.12,-0.29 -0.26,-0.56 -0.37,-0.85 l -0.53,-1.19 c -0.12,-0.28 -0.25,-0.55 -0.37,-0.84 l -0.54,-1.17 c -0.12,-0.27 -0.24,-0.54 -0.38,-0.81 -0.14,-0.27 -0.39,-0.82 -0.57,-1.24 -0.18,-0.42 -0.22,-0.46 -0.34,-0.69 l -0.86,-1.7 c -0.06,-0.14 -0.12,-0.27 -0.19,-0.4 l -0.8,-1.58 -0.35,-0.67 -0.59,-1.14 -0.41,-0.76 -0.58,-1 -0.4,-0.75 c -0.19,-0.33 -0.37,-0.67 -0.58,-1 l -0.4,-0.75 c -0.21,-0.34 -0.41,-0.67 -0.6,-1 l -0.4,-0.7 -0.7,-1.27 c 0,-0.17 -0.18,-0.32 -0.27,-0.47 -0.34,-0.54 -0.66,-1.08 -1,-1.69 l -0.35,-0.56 -0.66,-1 -0.43,-0.65 -0.61,-0.93 -0.44,-0.66 -0.59,-0.88 -0.46,-0.66 -0.61,-0.86 -0.44,-0.63 c -0.22,-0.32 -0.45,-0.62 -0.67,-0.93 -0.22,-0.31 -0.26,-0.35 -0.39,-0.54 l -1,-1.39 -0.3,-0.41 -0.76,-1 -0.46,-0.57 -0.63,-0.8 -0.49,-0.59 -0.61,-0.75 -0.49,-0.59 -0.61,-0.73 -0.49,-0.56 -0.74,-0.74 -0.44,-0.51 -0.83,-0.91 -0.36,-0.39 -1,-1.1 -0.46,-0.46 -0.68,-0.71 -0.49,-0.49 -0.64,-0.66 -0.51,-0.51 -0.64,-0.61 -0.51,-0.49 -0.65,-0.63 -0.49,-0.46 -0.74,-0.67 -0.41,-0.37 -1.13,-1 -0.41,-0.34 -1.23,-1.07 -0.68,-0.56 -0.53,-0.42 -0.64,-0.53 -0.52,-0.4 -0.67,-0.51 -0.52,-0.41 -0.71,-0.52 -0.48,-0.36 -1,-0.73 -0.42,-0.32 -0.88,-0.61 -0.5,-0.33 -0.69,-0.46 -0.52,-0.36 -0.68,-0.44 -0.53,-0.34 -0.67,-0.42 -0.53,-0.32 -0.69,-0.42 -0.51,-0.31 -0.81,-0.49 -0.38,-0.22 -1.16,-0.66 -0.46,-0.24 -0.75,-0.4 -0.5,-0.28 -0.7,-0.37 -0.54,-0.27 -0.66,-0.34 -0.51,-0.29 -0.69,-0.33 -1.35,-0.81 -0.44,-0.2 -1.17,-0.52 -0.37,-0.17 -0.83,-0.36 -0.49,-0.2 -0.72,-0.31 -0.52,-0.2 -0.68,-0.27 -0.52,-0.2 -0.7,-0.28 -0.5,-0.18 -0.73,-0.27 -0.48,-0.17 -1.27,-0.43 -1.1,-0.37 -0.29,-0.08 C 234.54037,41.999228 231.12839,27.773566 222.6,16.64 214.94,6.52 204.11,0 195,0 c -4.50027,-0.10776331 -8.82508,1.7462484 -11.85,5.08 -2.71093,2.9654349 -4.28394,6.795203 -4.44,10.81 -6.11097,0.813788 -11.1286,5.231358 -12.71,11.19 -1.2401,4.522659 -0.41642,9.362217 2.25,13.22 -3.66,3.39 -6.94,8.65 -7.3,17.2 -5.33714,1.85656 -10.52262,4.123327 -15.51,6.78 -1.15,0.61 -2.28,1.25 -3.38,1.91 l -2.87,1.69 c -0.69,0.43 -1.38,0.88 -2.08,1.34 -2.08,1.36 -4.14,2.82 -6.2,4.4 -0.69541,0.531956 -1.36296,1.099374 -2,1.7 -1.27333,1.013333 -2.53333,2.08 -3.78,3.2 -1.25,1.11 -2.84,2.57 -4.25,3.94 -2,2 -3.91,4 -5.81,6.18 -0.91,1 -1.81,2.13 -2.71,3.23 -0.9,1.1 -1.39,1.7 -2.06,2.63 l -1.16,1.5 c -1.1,1.486667 -2.18333,3.016667 -3.25,4.59 -1.07,1.58 -2.3,3.54 -3.39,5.38 -0.81,1.36 -1.59,2.73 -2.38,4.14 -0.58,1 -1.16,2.11 -1.7,3.2 -1,2 -2.08,4.11 -3.08,6.28 -1.9,4.08 -3.673333,8.41333 -5.32,13 -1,2.79 -2,5.68 -2.87,8.69 -0.61,2 -1.21,4.06 -1.78,6.16 -0.57,2.1 -1.05,4.05 -1.54,6.13 -0.15,0.64 -0.31,1.29 -0.44,2 -0.51,2.21 -1,4.5 -1.44,6.77 -0.386667,2 -0.753333,4.03 -1.1,6.09 -0.666667,4.12667 -1.276667,8.40667 -1.83,12.84 -0.586667,5.08667 -1.06,10.37333 -1.42,15.86 -0.21,3.08 -0.38,6.1 -0.53,9 -0.15,2.9 -0.29,5.86 -0.4,8.71 -0.11,2.85 -0.21,5.63 -0.29,8.36 v 1.8 c -2.64,0 -10.67,0 -32.17,35.15 -12.41,20.34 -22.81,42.1 -27.09,56.79 -1.7,5.57 -3.25,12.72 -1.58,17.92 h -0.17 l -0.84,0.17 -0.38,0.08 -0.77,0.17 -0.36,0.1 -0.83,0.22 -0.27,0.09 c -0.36,0.1 -0.71,0.22 -1.05,0.35 H 10.7 l -0.85,0.34 -0.32,0.14 -0.67,0.3 -0.33,0.17 -0.66,0.36 -0.28,0.15 -0.85,0.54 c -0.29,0.2 -0.58,0.41 -0.85,0.63 l -0.23,0.18 -0.56,0.49 -0.27,0.26 -0.77,0.76 c -0.17,0.2 -0.35,0.41 -0.52,0.63 l -0.15,0.2 c -0.22,0.29 -0.44,0.58 -0.65,0.88 l -0.13,0.22 c -0.15,0.24 -0.31,0.49 -0.44,0.75 -0.056398,0.11385 -0.1198551,0.22406 -0.19,0.33 -0.1302138,0.23166 -0.2438322,0.47226 -0.34,0.72 -0.049895,0.128 -0.1100928,0.25174 -0.18,0.37 l -0.51,1 -0.14,0.36 c -0.13,0.39 -0.27,0.79 -0.39,1.22 -0.1298446,0.49019 -0.23002624,0.98776 -0.3,1.49 -0.07553818,0.54684 -0.11562188,1.09799 -0.12,1.65 0.18054766,5.18933 1.4982345,10.27574 3.86,14.9 1.4694413,3.1979 3.1671613,6.28588 5.08,9.24 0.85,1.29 1.69,2.6 2.69,3.92 6.177377,8.34782 13.399594,15.86914 21.49,22.38 2.473333,2.04 5.09,4.04 7.85,6 4.866004,3.4764 9.920375,6.68129 15.14,9.6 18.2,10.16 41.21,18.8 69.42,23.39 4.52,0.74 9.21667,1.37 14.09,1.89 10.77851,1.14624 21.61072,1.71372 32.45,1.7 12.69832,0.0618 25.37945,-0.94169 37.91,-3 4.46,-0.76 8.74,-1.69 12.87,-2.68 26.77,-6.62 46.75,-18.76 61.55,-34.54 0.64,-0.67 1.27,-1.37 1.88,-2.06 1,-1.12 1.97667,-2.25 2.93,-3.39 l 1.49,-1.84 c 1.47,-1.88 2.87,-3.78 4.23,-5.74 0.74,-1.07 1.47,-2.15 2.17,-3.25 3.01858,-4.67615 5.73093,-9.54302 8.12,-14.57 0.61,-1.27 1.21,-2.54 1.7,-3.84 0.37,-0.83 0.72,-1.69 1.08,-2.49 0.74,-1.79 1.47,-3.59 2.15,-5.42 0.49,-1.29 1,-2.61 1.42,-4 0.43,-1.2 0.83,-2.4 1.22,-3.62 l 1.07,-3.39 c 0.55926,0.0847 1.12438,0.12486 1.69,0.12 1.36227,0.002 2.71493,-0.22793 4,-0.68 6.94471,-2.28447 13.35152,-5.95912 18.83,-10.8 6.1226,-5.49183 10.63985,-12.54246 13.07,-20.4 2.46174,-8.19263 3.23736,-16.79924 2.28,-25.3 z M 189,43.59 c 0.0762,0.0033 0.151,-0.02162 0.21,-0.07 0.0672,-0.04604 0.11099,-0.119053 0.12,-0.2 0.0289,-0.07049 0.0289,-0.149513 0,-0.22 -0.0331,-0.06955 -0.0954,-0.120822 -0.17,-0.14 -7.64,-3.56 -15.43,-7 -13.73,-13.22 0.81,-3 3.38,-4.2 6.65,-4.2 5.02351,0.377132 9.9072,1.829964 14.32,4.26 0.0514,0.02008 0.10856,0.02008 0.16,0 0.0639,0.0036 0.12716,-0.01394 0.18,-0.05 0.0506,-0.04055 0.0915,-0.09177 0.12,-0.15 0.0199,-0.06177 0.0199,-0.128228 0,-0.19 -0.01,-0.0625 -0.0415,-0.119384 -0.09,-0.16 -5.54,-5.68 -11.53,-11.67 -6.32,-17.63 1.19293,-1.207225 2.85825,-1.8257719 4.55,-1.69 10.59,0 31.45,17.69 27.42,43.41 l -0.49,-0.1 -0.67,-0.14 -0.49,-0.1 -0.7,-0.14 -1.23,-0.22 h -0.39 l -1.12,-0.18 h -0.22 l -0.93,-0.14 h -0.41 l -0.73,-0.1 h -1.59 l -0.69,-0.08 h -1.56 l -0.9,-0.09 h -14.72 l -2.17,0.1 h -0.15 l -2,0.14 h -0.22 l -1.86,0.15 h -0.3 l -1.81,0.19 h -0.21 l -1.81,0.22 h -0.13 l -1.85,0.23 -2.54,0.38 -2.59,0.45 -0.69,0.14 c -1.7,0.3 -3.24,0.64 -4.91,1 l -0.83,0.21 -0.36,0.08 C 173.11,44.91 181.64,44 189,43.59 Z M 31.32,306.19 c 6.949329,-16.18866 15.231125,-31.77222 24.76,-46.59 11.12,-17.29 17.61,-23.18 19.84,-24.4 0.127373,-0.0905 0.269482,-0.15814 0.42,-0.2 2.73,0.13 6.27,3.23 9.35,8.16 0.1,0.18 0.22,0.35 0.32,0.52 4.958356,8.24034 8.251863,19.95258 8.621278,31.9362 0,0 -1.431383,20.25809 -5.961278,28.7938 -1.865293,3.56053 -4.137129,6.89278 -6.77,9.93 -6.439971,7.2055 -14.595509,12.66775 -23.71,15.88 -2.06,0.76 -4,1.34 -5.63,1.78 -13.18,3.47 -24,2 -27.81,-0.12 -0.32,-0.88 -1.44,-6.47 6.57,-25.69 z m 280.81,-1.25 c -1.12908,13.1612 -3.44177,26.19389 -6.91,38.94 -1,3.47 -2,6.85 -3.15,10.16 -4.98063,14.79779 -12.79239,28.48535 -23,40.3 -11.26769,12.50798 -25.34353,22.16263 -41.07,28.17 -18.36,7.2 -40.48,10.85 -65.8,10.85 -12.13441,0.0373 -24.25891,-0.6975 -36.3,-2.2 -4.77,-0.61 -9.48,-1.33 -14.09,-2.18 C 104.77807,425.93751 88.201905,420.74255 72.48,413.52 51.06,403.52 32.82,389.6 21.11,374.24 10.31,360.09 9.6,351.11 10,349.64 10.9,346.46 12.78,344 27.71,344 h 8.06 c 11.09,0 19.52,-1.51 26.41,-4.74 15.096054,-5.35665 27.669792,-16.1204 35.29,-30.21 12,-22.67 7.46,-53.21 -2.91,-70.46 -2.196916,-3.81781 -5.102213,-7.1813 -8.56,-9.91 0.24,-9.6 0.63,-19.91 1.34,-30.92 3,-47.23 16,-83 38.59,-106.43 10.79729,-11.173057 24.10129,-19.612753 38.81,-24.62 6.41098,-2.1971 13.01789,-3.77432 19.73,-4.71 5.21511,-0.729527 10.47412,-1.100398 15.74,-1.11 9.67121,-0.06942 19.29498,1.357452 28.53,4.23 12.34168,3.95858 23.61306,10.690616 32.95,19.68 24.38,23.14 40.06,62.64 46.63,117.42 1.07,8.94 2.15,18.71 3,29 2.03,23.2 3.06,49.03 0.81,73.72 z m 32.09,-3.27 c -0.0274,1.82433 -0.1744,3.6449 -0.44,5.45 -0.24248,1.70996 -0.57629,3.40572 -1,5.08 -0.96594,3.96145 -2.57387,7.73806 -4.76,11.18 -0.85957,1.34218 -1.80837,2.62507 -2.84,3.84 -0.50056,0.59666 -1.0383,1.16112 -1.61,1.69 -0.56,0.51 -1.15,1.14 -1.69,1.7 -0.54,0.56 -1.15,1 -1.7,1.49 -1.77355,1.40126 -3.6562,2.65859 -5.63,3.76 -1.27,0.71 -2.58,1.35 -3.88,1.93 -1.3,0.58 -2.64,1.1 -4,1.55 0.39,-1.59 0.74,-3.2 1.1,-4.8 0.86,-4.04 1.61,-8.12667 2.25,-12.26 0.14,-0.93 0.29,-1.86 0.41,-2.8 0.35,-2.37 0.66,-4.77 0.95,-7.18 0.18,-1.69 0.35,-3.38 0.52,-5.07 0.17,-1.69 0.32,-3.39 0.44,-5.08 0.2,-2.54 0.37,-5.08 0.53,-7.62 0.08,-1.7 0.17,-3.39 0.23,-5.08 0.06,-1.69 0.12,-3.39 0.16,-5.08 v -17.8 c 0,-1.69 0,-3.38 -0.14,-5.08 -0.14,-1.7 -0.12,-3.38 -0.19,-5.08 -0.07,-1.7 -0.13,-3.38 -0.22,-5.08 -0.23,-4.6 -0.54,-9.17 -0.88,-13.69 H 322 c 0.14053,0.10066 0.26815,0.21821 0.38,0.35 1.26,1.48 2.49333,3.07333 3.7,4.78 0.91,1.28 1.79,2.62 2.67,4 l 0.86,1.42 c 1.93937,3.28047 3.68244,6.67309 5.22,10.16 0.78,1.69 1.52,3.55 2.22,5.38 1.04667,2.75333 1.99333,5.57667 2.84,8.47 0.83,2.84 1.58,5.74 2.19,8.65 0.82988,3.91419 1.45076,7.86979 1.86,11.85 0.12,1 0.2,2 0.25,3 0.04,2.15 0.08,4.09 0.03,5.97 z"
           id="path10"
           style="opacity:1;fill:#000000;fill-opacity:1;stroke-width:5.5564189;stroke-miterlimit:4;stroke-dasharray:none;paint-order:fill markers stroke"
           inkscape:connector-curvature="0"
           sodipodi:nodetypes="ccccccccccccssscccccccccsccsscccccccccssscccccsccccccccscccccccccccsscccccccccccccccccccccccccsccccccccccccccccccccccccccccccccccccccccccccccccccccccccccccccccccccccccccccccccccccccccccccccscccccccccsccccccssccccccccccccccccccccccccccccccccccccccccccccccccccccccccccccccccccccccccccccccccccccccccccccccccccccccccccccccccccccccccccccscccccccccccccccccssccccccccccccccccccccsccscccccsccscssscccccccccccccc" />
        <path
           style="opacity:1;fill:#000000;fill-opacity:1;stroke-width:5.5564189;stroke-miterlimit:4;stroke-dasharray:none;paint-order:fill markers stroke"
           class="cls-2"
           d="m 182.7,173 a 7.55,7.55 0 1 0 -9.08,-5.61 7.54,7.54 0 0 0 9.08,5.61 z"
           id="path16"
           inkscape:connector-curvature="0" />
        <path
           style="opacity:1;fill:#000000;fill-opacity:1;stroke-width:5.5564189;stroke-miterlimit:4;stroke-dasharray:none;paint-order:fill markers stroke"
           class="cls-2"
           d="m 264.68,172 a 7.55,7.55 0 1 0 -10.4,-2.45 7.55,7.55 0 0 0 10.4,2.45 z"
           id="path18"
           inkscape:connector-curvature="0" />
        <path
           style="opacity:1;fill:#000000;fill-opacity:1;stroke-width:5.5564189;stroke-miterlimit:4;stroke-dasharray:none;paint-order:fill markers stroke"
           class="cls-2"
           d="m 242.92,192 -19.12,-7.92 a 5.81,5.81 0 0 0 -2,-0.36 5.91,5.91 0 0 0 -2,0.36 L 200.64,192 a 3.29,3.29 0 0 0 -1.55,1 3.2,3.2 0 0 0 -0.73,1.71 3.25,3.25 0 0 0 0.32,1.84 3.33,3.33 0 0 0 1.28,1.35 l 19.4,12.58 a 3.84,3.84 0 0 0 2.41,0.71 3.8,3.8 0 0 0 2.39,-0.71 l 19.43,-12.58 a 3.25,3.25 0 0 0 0.88,-4.9 3.39,3.39 0 0 0 -1.55,-1 z"
           id="path20"
           inkscape:connector-curvature="0" />
      </g>
    </g>
  </g>
</svg>
