<svg xmlns="http://www.w3.org/2000/svg" viewBox="0 0 1921.01 325.05"><defs><style>.cls-1{fill:#fff;}</style></defs><g id="Camada_2" data-name="Camada 2"><g id="Camada_1-2" data-name="Camada 1"><path class="cls-1" d="M240.17,68.2C222.22,57.65,204,47.5,186.06,37c-5.82-3.4-11.07-3.23-16.86.18C131.33,59.52,96.48,80,58.56,102.25l-.13.08a13.14,13.14,0,0,0-3.8,19.19l1,1.36a12.43,12.43,0,0,0,1.21,1.39,5.22,5.22,0,0,0,.48.46l3.94,2.46L107.46,156c.27,38,.2,76.07.28,114.11a51.79,51.79,0,0,0,.26,6.48c1,7.35,7.24,14,13.32,14.34,5.81.3,12-5.1,13.87-12.4a26,26,0,0,0,.7-6.41c0-34.67.33-69.34-.29-104-.2-10.82,3.74-17.12,13-22.29,30.68-17.12,61-34.84,91.43-52.48C252.21,86.29,252.29,75.31,240.17,68.2ZM194.9,87c-23.25,13.46-46.46,27-69.8,40.28a10.55,10.55,0,0,1-10.82-.22L97.65,116.69a2.93,2.93,0,0,1,.07-5C122.51,97.07,146,83.2,171.62,68.35c2.61-1.51,6.9-2.66,9.28-1.55,6.78,3.15,13.21,7.08,20.24,11.2a2.92,2.92,0,0,1,.13,5C199,84.49,197,85.8,194.9,87Z"/><path class="cls-1" d="M261,325.05H64a64,64,0,0,1-64-64v-197a64.05,64.05,0,0,1,64-64H261a64.05,64.05,0,0,1,64,64v197A64,64,0,0,1,261,325.05ZM64,18.09a46,46,0,0,0-46,46v197a46,46,0,0,0,46,46H261a46,46,0,0,0,46-46v-197a46,46,0,0,0-46-46Z"/><path class="cls-1" d="M235.42,157.27l-54.09,29c-3.29,1.77-7.15-2.06-8.61-8.54h0c-1.47-6.49,0-13.18,3.31-14.95l54.09-29c3.29-1.76,7.15,2.06,8.61,8.55h0C240.2,148.81,238.72,155.5,235.42,157.27Z"/><path class="cls-1" d="M223.72,212.22,180.34,235.5c-2.64,1.42-5.73-1.65-6.91-6.85h0c-1.17-5.21,0-10.57,2.66-12l43.38-23.27c2.64-1.42,5.73,1.65,6.9,6.85h0C227.55,205.44,226.36,210.81,223.72,212.22Z"/><path class="cls-1" d="M393.09,28A23.48,23.48,0,0,1,416.57,4.51h49.66c49.67,0,74,27.54,74,78.11v31.15c0,50.56-24.37,78.1-74,78.1H442.76v105.2a23.47,23.47,0,0,1-23.47,23.47h-2.72a23.47,23.47,0,0,1-23.48-23.47Zm73.14,118.74c15.8,0,24.38-7.23,24.38-29.8V79.46c0-22.57-8.58-29.8-24.38-29.8H453.11A10.36,10.36,0,0,0,442.76,60v76.35a10.36,10.36,0,0,0,10.35,10.36Z"/><path class="cls-1" d="M563.75,245.6V79.46C563.75,28.89,590.39,0,639.15,0s75.39,28.89,75.39,79.46V245.6c0,50.56-26.63,79.45-75.39,79.45S563.75,296.16,563.75,245.6Zm101.13,3.16V76.3c0-22.57-9.93-31.15-25.73-31.15s-25.74,8.58-25.74,31.15V248.76c0,22.57,9.94,31.15,25.74,31.15S664.88,271.33,664.88,248.76Z"/><path class="cls-1" d="M759.72,4.51h5a21.25,21.25,0,0,1,21.15,19.31L806.2,247.4h.9L828.72,23.71a21.24,21.24,0,0,1,21.14-19.2h15.61a21.24,21.24,0,0,1,21.14,19.2L908.23,247.4h.9L929.5,23.82A21.23,21.23,0,0,1,950.65,4.51h0a21.23,21.23,0,0,1,21.12,23.38L944,301.45a21.24,21.24,0,0,1-21.13,19.09H899.34a21.23,21.23,0,0,1-21.11-19L857.67,107.45h-.91L836.2,301.54a21.23,21.23,0,0,1-21.12,19H787.47a21.24,21.24,0,0,1-21.13-19.09L738.59,27.89A21.24,21.24,0,0,1,759.72,4.51Z"/><path class="cls-1" d="M1014.55,4.51h108a12.35,12.35,0,0,1,12.34,12.35V37.32a12.35,12.35,0,0,1-12.34,12.34h-61.09A12.35,12.35,0,0,0,1049.1,62v58.84a12.34,12.34,0,0,0,12.35,12.34h38.64a17.18,17.18,0,0,1,17.18,17.18v10.79a17.18,17.18,0,0,1-17.18,17.18h-38.64a12.34,12.34,0,0,0-12.35,12.34v72.38a12.34,12.34,0,0,0,12.35,12.34h61.09a12.35,12.35,0,0,1,12.34,12.35V308.2a12.35,12.35,0,0,1-12.34,12.34h-108a15.1,15.1,0,0,1-15.11-15.11V19.62A15.11,15.11,0,0,1,1014.55,4.51Z"/><path class="cls-1" d="M1163.33,22.57a18.06,18.06,0,0,1,18.06-18.06h55.53c51.47,0,73.59,23.93,73.59,72.69V96.61c0,32.51-10.38,53.28-32.51,62.31v.9c24.83,7.67,33,31.15,33,66.82v55.52c0,6.88.09,12.93.64,18.58a18,18,0,0,1-18,19.8h-13.55a18,18,0,0,1-17.95-16.06c-.54-5.21-.84-12.26-.84-22.77V223.93c0-29.35-8.58-38.83-31.15-38.83H1213V302.48a18.05,18.05,0,0,1-18.06,18.06h-13.54a18.05,18.05,0,0,1-18.06-18.06ZM1231.05,140c18.51,0,29.8-8.13,29.8-33.42V82.17c0-22.58-7.68-32.51-25.29-32.51h-12.22A10.35,10.35,0,0,0,1213,60V129.6A10.36,10.36,0,0,0,1223.34,140Z"/><path class="cls-1" d="M1427,4.51h112.36a9.51,9.51,0,0,1,9.51,9.51V40.15a9.51,9.51,0,0,1-9.51,9.51h-62.69a9.51,9.51,0,0,0-9.51,9.51v72.05a6.48,6.48,0,0,0,6.47,6.48h43.73a13.9,13.9,0,0,1,13.91,13.9v17.34a13.9,13.9,0,0,1-13.91,13.9h-43.73a6.48,6.48,0,0,0-6.47,6.48V311a9.51,9.51,0,0,1-9.51,9.51H1427a9.5,9.5,0,0,1-9.5-9.51V14A9.5,9.5,0,0,1,1427,4.51Z"/><path class="cls-1" d="M1569.22,245.6V79.46c0-50.57,26.63-79.46,75.39-79.46S1720,28.89,1720,79.46V245.6c0,50.56-26.63,79.45-75.39,79.45S1569.22,296.16,1569.22,245.6Zm101.12,3.16V76.3c0-22.57-9.93-31.15-25.73-31.15s-25.74,8.58-25.74,31.15V248.76c0,22.57,9.94,31.15,25.74,31.15S1670.34,271.33,1670.34,248.76Z"/><path class="cls-1" d="M1749.81,245.6V79.46c0-50.57,25.28-79.46,74-79.46s74,28.89,74,79.46V94.13a12.41,12.41,0,0,1-12.42,12.41h-22.12a12.41,12.41,0,0,1-12.41-12.41V76.3c0-22.57-9.94-31.15-25.74-31.15s-25.73,8.58-25.73,31.15V249.21c0,22.57,9.93,30.7,25.73,30.7s25.74-8.13,25.74-30.7V199.78a12.42,12.42,0,0,0-12.42-12.42h0a12.41,12.41,0,0,1-12.41-12.42V154.63a12.41,12.41,0,0,1,12.41-12.42h47a12.42,12.42,0,0,1,12.42,12.42v91c0,50.56-25.28,79.45-74,79.45S1749.81,296.16,1749.81,245.6Z"/><path class="cls-1" d="M1901,2.72h-3.13V0h9.26V2.72H1904V19.06h-3Z"/><path class="cls-1" d="M1908.59,0h4.28l1.9,13.64h.06L1916.73,0H1921V19.06h-2.83V4.63h-.06l-2.18,14.43h-2.5l-2.18-14.43h0V19.06h-2.62Z"/></g></g></svg>