<svg xmlns="http://www.w3.org/2000/svg" viewBox="0 0 234.48 309.28"><defs><style>.cls-1{fill:#fff;}</style></defs><g id="Camada_2" data-name="Camada 2"><g id="Camada_1-2" data-name="Camada 1"><path class="cls-1" d="M173.29,49.14c-12.95-7.61-26.07-14.93-39-22.51-4.2-2.45-8-2.33-12.16.13C94.76,42.88,69.61,57.65,42.25,73.71l-.09.06a9.48,9.48,0,0,0-2.74,13.85l.73,1a9.31,9.31,0,0,0,.87,1,3.61,3.61,0,0,0,.35.33l2.84,1.78L77.54,112.5c.19,27.44.14,54.89.2,82.34a36.48,36.48,0,0,0,.19,4.68c.69,5.3,5.22,10.11,9.61,10.34,4.19.22,8.63-3.68,10-8.94a18.47,18.47,0,0,0,.51-4.63c0-25,.24-50-.21-75-.14-7.81,2.7-12.36,9.38-16.09,22.14-12.35,44-25.14,66-37.86C182,62.2,182,54.27,173.29,49.14ZM140.63,62.71c-16.77,9.71-33.52,19.47-50.36,29.06a7.62,7.62,0,0,1-7.81-.15l-12-7.49a2.12,2.12,0,0,1,.05-3.61C88.4,70,105.32,60,123.83,49.25c1.88-1.09,5-1.92,6.7-1.12,4.9,2.28,9.54,5.11,14.61,8.08a2.11,2.11,0,0,1,.09,3.59C143.56,60.9,142.12,61.84,140.63,62.71Z"/><path class="cls-1" d="M188.32,234.48H46.16A46.22,46.22,0,0,1,0,188.32V46.16A46.22,46.22,0,0,1,46.16,0H188.32a46.22,46.22,0,0,1,46.16,46.16V188.32A46.22,46.22,0,0,1,188.32,234.48ZM46.16,13A33.21,33.21,0,0,0,13,46.16V188.32a33.21,33.21,0,0,0,33.17,33.17H188.32a33.21,33.21,0,0,0,33.17-33.17V46.16A33.21,33.21,0,0,0,188.32,13Z"/><path class="cls-1" d="M169.87,113.41l-39,21c-2.37,1.27-5.16-1.49-6.21-6.17h0c-1.06-4.68,0-9.51,2.39-10.78l39-20.94c2.37-1.28,5.16,1.48,6.21,6.16h0C173.32,107.31,172.25,112.14,169.87,113.41Z"/><path class="cls-1" d="M161.43,153.07l-31.3,16.79c-1.91,1-4.14-1.19-5-4.94h0c-.84-3.76,0-7.63,1.92-8.65l31.3-16.8c1.9-1,4.14,1.2,5,4.95h0C164.19,148.17,163.33,152,161.43,153.07Z"/><path class="cls-1" d="M0,263a3.66,3.66,0,0,1,3.66-3.66H11.4c7.74,0,11.53,4.29,11.53,12.17v4.85c0,7.88-3.79,12.17-11.53,12.17H7.74v16.4a3.65,3.65,0,0,1-3.66,3.65H3.66A3.65,3.65,0,0,1,0,304.92Zm11.4,18.5c2.46,0,3.8-1.13,3.8-4.64V271c0-3.52-1.34-4.65-3.8-4.65H9.35A1.62,1.62,0,0,0,7.74,268v11.9a1.61,1.61,0,0,0,1.61,1.61Z"/><path class="cls-1" d="M26.59,296.9V271c0-7.88,4.15-12.38,11.75-12.38s11.75,4.5,11.75,12.38V296.9c0,7.87-4.15,12.38-11.75,12.38S26.59,304.77,26.59,296.9Zm15.76.49V270.51c0-3.51-1.55-4.85-4-4.85s-4,1.34-4,4.85v26.88c0,3.52,1.55,4.85,4,4.85S42.35,300.91,42.35,297.39Z"/><path class="cls-1" d="M57.13,259.33h.77a3.31,3.31,0,0,1,3.3,3l3.17,34.84h.14l3.37-34.86a3.3,3.3,0,0,1,3.29-3h2.44a3.3,3.3,0,0,1,3.29,3l3.37,34.86h.14l3.17-34.84a3.31,3.31,0,0,1,3.3-3h0A3.3,3.3,0,0,1,90.17,263L85.85,305.6a3.31,3.31,0,0,1-3.29,3H78.88a3.31,3.31,0,0,1-3.29-3l-3.2-30.24h-.14l-3.2,30.24a3.31,3.31,0,0,1-3.29,3H61.45a3.3,3.3,0,0,1-3.29-3L53.84,263A3.3,3.3,0,0,1,57.13,259.33Z"/><path class="cls-1" d="M96.84,259.33h16.82a1.92,1.92,0,0,1,1.93,1.92v3.19a1.92,1.92,0,0,1-1.93,1.92h-9.52a1.92,1.92,0,0,0-1.92,1.93v9.16a1.92,1.92,0,0,0,1.92,1.93h6a2.68,2.68,0,0,1,2.68,2.68v1.68a2.68,2.68,0,0,1-2.68,2.67h-6a1.92,1.92,0,0,0-1.92,1.93v11.27a1.92,1.92,0,0,0,1.92,1.93h9.52a1.92,1.92,0,0,1,1.93,1.92v3.19a1.92,1.92,0,0,1-1.93,1.92H96.84a2.36,2.36,0,0,1-2.36-2.35V261.68A2.36,2.36,0,0,1,96.84,259.33Z"/><path class="cls-1" d="M120,262.14a2.81,2.81,0,0,1,2.81-2.81h8.66c8,0,11.46,3.73,11.46,11.33v3c0,5.07-1.62,8.3-5.06,9.71v.14c3.87,1.19,5.13,4.85,5.13,10.41v8.65c0,1.07,0,2,.1,2.9a2.81,2.81,0,0,1-2.8,3.08h-2.11a2.79,2.79,0,0,1-2.79-2.5,33.29,33.29,0,0,1-.14-3.55v-9c0-4.57-1.33-6-4.85-6h-2.67v18.29a2.81,2.81,0,0,1-2.82,2.81h-2.11a2.81,2.81,0,0,1-2.81-2.81Zm10.55,18.29c2.89,0,4.64-1.26,4.64-5.2v-3.8c0-3.52-1.19-5.07-3.94-5.07h-1.9a1.62,1.62,0,0,0-1.61,1.62v10.84a1.61,1.61,0,0,0,1.61,1.61Z"/><path class="cls-1" d="M161.11,259.33h17.51a1.48,1.48,0,0,1,1.48,1.48v4.07a1.48,1.48,0,0,1-1.48,1.48h-9.77a1.49,1.49,0,0,0-1.48,1.49v11.22a1,1,0,0,0,1,1h6.82a2.17,2.17,0,0,1,2.16,2.17V285a2.17,2.17,0,0,1-2.16,2.17h-6.82a1,1,0,0,0-1,1v19a1.49,1.49,0,0,1-1.49,1.48h-4.77a1.48,1.48,0,0,1-1.48-1.48V260.81A1.48,1.48,0,0,1,161.11,259.33Z"/><path class="cls-1" d="M183.26,296.9V271c0-7.88,4.16-12.38,11.75-12.38s11.75,4.5,11.75,12.38V296.9c0,7.87-4.15,12.38-11.75,12.38S183.26,304.77,183.26,296.9Zm15.76.49V270.51c0-3.51-1.54-4.85-4-4.85s-4,1.34-4,4.85v26.88c0,3.52,1.55,4.85,4,4.85S199,300.91,199,297.39Z"/><path class="cls-1" d="M211.41,296.9V271c0-7.88,3.93-12.38,11.53-12.38s11.54,4.5,11.54,12.38v2.28a1.94,1.94,0,0,1-1.94,1.94H229.1a1.94,1.94,0,0,1-1.94-1.94v-2.78c0-3.51-1.54-4.85-4-4.85s-4,1.34-4,4.85v26.95c0,3.52,1.55,4.78,4,4.78s4-1.26,4-4.78v-7.7a1.93,1.93,0,0,0-1.93-1.94h0a1.94,1.94,0,0,1-1.94-1.93v-3.17a1.93,1.93,0,0,1,1.94-1.93h7.31a1.93,1.93,0,0,1,1.94,1.93V296.9c0,7.87-3.94,12.38-11.54,12.38S211.41,304.77,211.41,296.9Z"/><path class="cls-1" d="M188.17,32.28h-2.26v-2h6.69v2h-2.26V44.07h-2.17Z"/><path class="cls-1" d="M193.64,30.31h3.08l1.38,9.85h0l1.37-9.85h3.09V44.07h-2V33.65h0l-1.57,10.42h-1.8l-1.58-10.42h0V44.07h-1.88Z"/></g></g></svg>