<svg width="21" height="24" viewBox="0 0 21 24" fill="none" xmlns="http://www.w3.org/2000/svg">
<path d="M20.2636 5.99585C20.2636 5.89149 20.2636 5.88797 20.1464 5.88914C19.8838 5.88677 19.6219 5.86362 19.3631 5.81994C18.425 5.67805 15.3646 4.074 14.8487 1.45212C14.7866 1.12831 14.7451 0.800901 14.7244 0.471852C14.7244 0.348732 14.7244 0.348738 14.6012 0.346393H10.9287C10.6872 0.346393 10.7224 0.315898 10.7224 0.557448C10.7224 5.74336 10.7224 10.9301 10.7224 16.1175C10.7261 16.3102 10.7132 16.5028 10.6837 16.6932C10.6098 17.141 10.4463 17.5693 10.2028 17.9523C9.95934 18.3352 9.64102 18.665 9.26693 18.9219C8.89284 19.1789 8.47069 19.3576 8.02583 19.4473C7.58098 19.5371 7.12258 19.5359 6.67815 19.4441C6.40851 19.3815 6.14516 19.2943 5.89136 19.1838L5.82804 19.1276C5.74127 19.0549 5.64628 18.9962 5.55365 18.9317C5.03507 18.5921 4.62233 18.1136 4.36243 17.5508C4.10253 16.9881 4.00594 16.3636 4.08367 15.7486C4.1614 15.1336 4.41033 14.5528 4.80207 14.0723C5.19382 13.5919 5.71263 13.2312 6.29941 13.0313C6.68056 12.891 7.08641 12.8304 7.49192 12.8531C7.75538 12.8631 8.01693 12.9024 8.27169 12.9703C8.35963 12.9949 8.40654 12.9644 8.41123 12.8706C8.41123 12.839 8.41123 12.805 8.41123 12.7722C8.41123 11.8411 8.37722 9.80673 8.37253 9.80321C8.37253 9.53469 8.37253 9.2662 8.3784 8.99886C8.3784 8.92147 8.34204 8.90856 8.27637 8.90152C7.79508 8.84368 7.30932 8.83266 6.8259 8.86867C5.0625 8.99564 3.40458 9.75631 2.15822 11.0102C0.911854 12.2641 0.161213 13.9266 0.0448935 15.6907C0.019721 16.0712 0.0248188 16.4531 0.0601376 16.8328C0.148811 17.8314 0.442408 18.801 0.922571 19.681C1.40273 20.561 2.05916 21.3326 2.85087 21.9476C2.96601 22.0516 3.09409 22.1402 3.23196 22.2114L3.4137 22.372C3.60615 22.5157 3.81145 22.6413 4.02697 22.7473C5.5082 23.4944 7.19724 23.723 8.82377 23.3965C10.4503 23.0699 11.9203 22.2071 12.9983 20.9462C14.1529 19.6163 14.7814 17.9102 14.7654 16.1492C14.7795 13.5695 14.7654 10.984 14.7654 8.40083C14.7654 8.33869 14.7302 8.25075 14.7971 8.22027C14.8639 8.18978 14.9038 8.26716 14.9542 8.29999C15.9052 8.9316 16.9621 9.38678 18.0744 9.64376C18.7251 9.79704 19.3911 9.87573 20.0596 9.87829C20.2718 9.87829 20.2941 9.86768 20.2941 9.65779C20.3117 8.7467 20.2636 6.2374 20.2636 5.99585Z" fill="white"/>
</svg>
