<svg width="26" height="22" viewBox="0 0 26 22" fill="none" xmlns="http://www.w3.org/2000/svg">
<path d="M25.9105 2.95844C24.96 3.37991 23.9518 3.6566 22.9193 3.77925C24.0069 3.12682 24.8212 2.10249 25.2117 0.895874C24.1871 1.50411 23.0653 1.9313 21.8957 2.15873C21.181 1.39836 20.2544 0.870228 19.2359 0.642845C18.2175 0.415461 17.1542 0.499335 16.184 0.883529C15.2137 1.26772 14.3813 1.93453 13.7947 2.79752C13.208 3.6605 12.8942 4.67985 12.8938 5.72337C12.8943 6.1222 12.9387 6.51974 13.0263 6.90883C10.9551 6.8056 8.92881 6.26787 7.07897 5.33053C5.22914 4.39319 3.59718 3.07723 2.28905 1.4681C1.62245 2.61384 1.41786 3.97066 1.71701 5.26201C2.01615 6.55335 2.79649 7.68202 3.89898 8.41795C3.07318 8.39383 2.26543 8.17058 1.54445 7.76718V7.83048C1.54514 9.03301 1.96084 10.1984 2.72139 11.1299C3.48195 12.0614 4.54072 12.7017 5.71882 12.9429C5.27143 13.0607 4.8107 13.1202 4.34807 13.12C4.018 13.1203 3.68864 13.0897 3.36429 13.0285C3.69854 14.0624 4.34668 14.9664 5.21863 15.6147C6.09057 16.2631 7.14295 16.6235 8.22929 16.6459C6.3834 18.0923 4.10529 18.8769 1.76023 18.8738C1.34613 18.8737 0.932353 18.8506 0.520813 18.8046C2.75905 20.2377 5.34162 21.0423 7.99777 21.1339C10.6539 21.2255 13.2858 20.6008 15.6174 19.3253C17.9491 18.0498 19.8947 16.1705 21.2501 13.8844C22.6056 11.5983 23.321 8.98964 23.3215 6.33192L23.3063 5.65771C24.3293 4.92245 25.2115 4.00886 25.9105 2.96076V2.95844Z" fill="white"/>
</svg>
