<svg width="32" height="22" viewBox="0 0 32 22" fill="none" xmlns="http://www.w3.org/2000/svg">
<path d="M30.9468 3.69051C30.7725 3.04209 30.4309 2.45087 29.9561 1.97609C29.4813 1.50132 28.8901 1.15967 28.2417 0.985381C25.8555 0.345155 16.2814 0.345154 16.2814 0.345154C16.2814 0.345154 6.71204 0.345155 4.32116 0.985381C3.67442 1.16124 3.08507 1.50356 2.61186 1.9782C2.13866 2.45285 1.79814 3.04323 1.62425 3.69051C1.18355 6.12079 0.969602 8.58676 0.985187 11.0566C0.969569 13.5265 1.18351 15.9925 1.62425 18.4227C1.79867 19.0714 2.14049 19.6629 2.61546 20.1378C3.09043 20.6128 3.68188 20.9546 4.33055 21.129C6.71674 21.7693 16.2908 21.7693 16.2908 21.7693C16.2908 21.7693 25.8614 21.7693 28.2511 21.129C28.8997 20.9548 29.4911 20.613 29.9659 20.138C30.4407 19.663 30.7822 19.0714 30.9562 18.4227C31.3978 15.9926 31.6121 13.5265 31.5964 11.0566C31.609 8.58642 31.3915 6.1204 30.9468 3.69051ZM13.2257 15.6508V6.46951L21.1758 11.0601L13.2257 15.6508Z" fill="white"/>
</svg>
